uphill_walking_calibrated_grf.mot
version=1
nRows=6
nColumns=37
inDegrees=yes
endheader
time	ground_force1_vx	ground_force1_vy	ground_force1_vz	ground_force1_px	ground_force1_py	ground_force1_pz	ground_torque1_x	ground_torque1_y	ground_torque1_z	ground_force2_vx	ground_force2_vy	ground_force2_vz	ground_force2_px	ground_force2_py	ground_force2_pz	ground_torque2_x	ground_torque2_y	ground_torque2_z	femur_assistance_force_vx	femur_assistance_force_vy	femur_assistance_force_vz	femur_assistance_force_px	femur_assistance_force_py	femur_assistance_force_pz	femur_assistance_torque_x	femur_assistance_torque_y	femur_assistance_torque_z	tibia_assistance_force_vx	tibia_assistance_force_vy	tibia_assistance_force_vz	tibia_assistance_force_px	tibia_assistance_force_py	tibia_assistance_force_pz	tibia_assistance_torque_x	tibia_assistance_torque_y	tibia_assistance_torque_z
     28.38000000	      0.00000000	      0.00000000	      0.00000000	      0.88900000	      0.00000000	     -0.84017500	      0.00000000	      0.00000000	      0.00000000	    225.23223900	    652.75219700	    -60.54040500	      0.51512300	      0.00000000	     -0.47249900	      0.00002800	     -6.60135200	      0.00005800	     -0.00000000	      0.00000000	      0.00000000	     -0.10000000	     -0.09600000	      0.00000000	      0.00000000	      0.00000000	      0.00000000	      0.00000000	     -0.00000000	      0.00000000	     -0.08000000	     -0.19000000	      0.00000000	      0.00000000	      0.00000000	      0.00000000
     28.38100000	      0.00000000	      0.00000000	      0.00000000	      0.88900000	      0.00000000	     -0.84017500	      0.00000000	      0.00000000	      0.00000000	    225.99517800	    654.12548800	    -61.30334500	      0.51497500	      0.00000000	     -0.47290600	     -0.00000700	     -6.60900600	      0.00002300	     -0.00000000	      0.00000000	      0.00000000	     -0.10000000	     -0.09600000	      0.00000000	      0.00000000	      0.00000000	      0.00000000	      0.00000000	     -0.00000000	      0.00000000	     -0.08000000	     -0.19000000	      0.00000000	      0.00000000	      0.00000000	      0.00000000
     28.38200000	      0.00000000	      0.00000000	      0.00000000	      0.88900000	      0.00000000	     -0.84017500	      0.00000000	      0.00000000	      0.00000000	    226.22406000	    655.49877900	    -61.68481400	      0.51371000	      0.00000000	     -0.47256700	      0.00001300	     -5.85078300	      0.00003400	     -0.00000000	      0.00000000	      0.00000000	     -0.10000000	     -0.09600000	      0.00000000	      0.00000000	      0.00000000	      0.00000000	      0.00000000	     -0.00000000	      0.00000000	     -0.08000000	     -0.19000000	      0.00000000	      0.00000000	      0.00000000	      0.00000000
     28.38300000	      0.00000000	      0.00000000	      0.00000000	      0.88900000	      0.00000000	     -0.84017500	      0.00000000	      0.00000000	      0.00000000	    226.91070600	    655.95654300	    -61.07446300	      0.51111800	      0.00000000	     -0.47233100	      0.00001200	     -5.61681100	      0.00003700	     -0.00000000	      0.00000000	      0.00000000	     -0.10000000	     -0.09600000	      0.00000000	      0.00000000	      0.00000000	      0.00000000	      0.00000000	     -0.00000000	      0.00000000	     -0.08000000	     -0.19002855	      0.00000000	      0.00000000	      0.00000000	      0.00000000
     28.38400000	      0.00000000	      0.00000000	      0.00000000	      0.88900000	      0.00000000	     -0.84017500	      0.00000000	      0.00000000	      0.00000000	    228.28399700	    656.26171900	    -60.31152700	      0.51032300	      0.00000000	     -0.47248300	      0.00000100	     -6.00576700	      0.00001100	     -0.00000000	      0.00000000	      0.00000000	     -0.10000000	     -0.09600000	      0.00000000	      0.00000000	      0.00000000	      0.00000000	      0.00000000	     -0.00000000	      0.00000000	     -0.08000000	     -0.19007514	      0.00000000	      0.00000000	      0.00000000	      0.00000000
     28.38500000	      0.00000000	      0.00000000	      0.00000000	      0.88900000	      0.00000000	     -0.84017500	      0.00000000	      0.00000000	      0.00000000	    230.11505100	    657.94018600	    -59.85376400	      0.51069100	      0.00000000	     -0.47229800	      0.00000800	     -6.36854200	      0.00004400	     -0.00000000	      0.00000000	      0.00000000	     -0.10000000	     -0.09600000	      0.00000000	      0.00000000	      0.00000000	      0.00000000	      0.00000000	     -0.00000000	      0.00000000	     -0.08000000	     -0.19012172	      0.00000000	      0.00000000	      0.00000000	      0.00000000
